<?xml version="1.0" encoding="UTF-8" standalone="no"?><!DOCTYPE svg PUBLIC "-//W3C//DTD SVG 1.1//EN" "http://www.w3.org/Graphics/SVG/1.1/DTD/svg11.dtd"><svg width="100%" height="100%" viewBox="0 0 1024 1024" version="1.1" xmlns="http://www.w3.org/2000/svg" xmlns:xlink="http://www.w3.org/1999/xlink" xml:space="preserve" xmlns:serif="http://www.serif.com/" style="fill-rule:evenodd;clip-rule:evenodd;stroke-linejoin:round;stroke-miterlimit:1.41421;"><g><path d="M513.102,0.707c52.981,0.2 106.113,8.544 156.644,24.884l12.73,4.149l-7.542,23.139c-104.424,-34.036 -217.349,-37.555 -323.058,-0.948l-1.193,0.416l-12.683,4.466l-8.083,-22.956c57.978,-20.415 118.505,-32.899 180.486,-33.149c0.9,-0.002 1.799,-0.002 2.699,-0.001Z" style="fill:#fff;fill-rule:nonzero;"/><path d="M866.48,143.712c58.368,56.378 103.06,126.681 129.185,201.972l4.57,13.333l-23.022,7.892l-4.555,-13.29c-25.176,-72.557 -67.576,-138.785 -123.054,-192.371l-10.112,-9.696l16.843,-17.567c3.381,3.242 6.763,6.485 10.145,9.727Z" style="fill:#fff;fill-rule:nonzero;"/><path d="M1023.5,500.236c-0.212,138.644 -51.335,275.99 -151.814,375.742l-1.108,1.093l-9.783,9.599l-17.044,-17.372c65.178,-63.947 115.266,-142.712 138.817,-230.518c10.907,-40.662 16.374,-82.795 16.574,-124.795l0.021,-13.787c8.112,0.013 16.225,0.025 24.337,0.038Z" style="fill:#fff;fill-rule:nonzero;"/><path d="M738.272,971.454c-114.074,52.848 -244.287,67.793 -366.517,33.174l-1.059,-0.302l-12.74,-3.667l6.732,-23.387c4.91,1.413 9.817,2.841 14.733,4.233c111.158,31.21 230.362,22.237 336.098,-26.331l12.523,-5.802c3.41,7.361 6.82,14.722 10.23,22.082Z" style="fill:#fff;fill-rule:nonzero;"/><path d="M34.088,609.185c25.829,126.894 104.93,242.512 214.349,313.225l11.542,7.409l-13.146,20.481c-119.114,-76.455 -208.193,-196.738 -236.601,-336.3l-2.71,-13.539l23.864,-4.776c0.9,4.5 1.801,9 2.702,13.5Z" style="fill:#fff;fill-rule:nonzero;"/><path d="M189.013,146.889c-92.477,86.093 -153.886,202.776 -163.269,329.865l-0.968,13.65l-24.276,-1.722c9.329,-131.585 63.379,-258.016 161.954,-350.318l9.976,-9.288c5.528,5.938 11.055,11.876 16.583,17.813Z" style="fill:#fff;fill-rule:nonzero;"/><path d="M513.273,57.113c140.547,0.671 279.116,69.682 364.12,184.033c97.828,131.604 117.738,317.203 44.753,468.558c-61.368,127.264 -184.608,223.025 -324.216,249.804c-141.908,27.22 -295.551,-17.261 -401.166,-118.568c-73.003,-70.024 -121.788,-164.783 -135.818,-264.933c-19.958,-142.467 31.799,-293.601 137.795,-394.061c83.151,-78.808 196.519,-124.284 311.589,-124.833c0.981,-0.002 1.962,-0.002 2.943,0Zm-2.865,24.337c-175.661,0.838 -346.311,117.467 -406.035,290.287c-45.378,131.308 -22.573,283.74 60.598,396.328c79.702,107.892 211.46,175.259 346.831,175.259c160.175,0 317.201,-96.491 388.422,-244.19c66.7,-138.321 52.935,-311.26 -38.537,-438.241c-79.223,-109.976 -210.807,-178.786 -348.492,-179.443c-0.929,-0.002 -1.858,-0.002 -2.787,0Z" style="fill:#fff;fill-rule:nonzero;"/><path d="M513.092,113.202c129.21,0.616 255.465,67.633 328.324,174.061c65.332,95.435 86.22,219.082 55.025,332.182l-3.734,13.314l-23.433,-6.572l3.72,-13.263c29.111,-105.543 9.611,-222.41 -51.661,-311.913c-68.215,-99.646 -187.636,-162.897 -308.319,-163.472l-13.4,-0.022l0.039,-24.337c4.479,0.007 8.959,0.015 13.439,0.022Z" style="fill:#fff;fill-rule:nonzero;"/><path d="M144.866,589.311c32.125,152.727 167.392,280.769 331.308,296.25c134.657,12.716 272.381,-51.922 348.705,-167.075l7.483,-11.385l20.337,13.367l-7.509,11.424c-55.363,83.529 -143.116,145.775 -241.349,168.995c-123.449,29.181 -259.972,-4.338 -356.094,-89.222c-64.006,-56.523 -109.206,-134.192 -126.704,-217.377l-2.689,-12.962l23.829,-4.945c0.895,4.31 1.789,8.62 2.683,12.93Z" style="fill:#fff;fill-rule:nonzero;"/><path d="M364.443,167.408l-12.532,5.892c-128.103,60.919 -213.985,196.206 -214.954,337.324l-0.033,13.958l-24.336,-0.056l0.032,-14.014c1.006,-146.431 86.424,-287.319 219.409,-354.576c3.139,-1.588 6.301,-3.126 9.478,-4.637l12.58,-5.915c3.452,7.341 6.904,14.683 10.356,22.024Z" style="fill:#fff;fill-rule:nonzero;"/></g></svg>