<?xml version="1.0" encoding="UTF-8" standalone="no"?><!DOCTYPE svg PUBLIC "-//W3C//DTD SVG 1.1//EN" "http://www.w3.org/Graphics/SVG/1.1/DTD/svg11.dtd"><svg width="100%" height="100%" viewBox="0 0 1024 512" version="1.1" xmlns="http://www.w3.org/2000/svg" xmlns:xlink="http://www.w3.org/1999/xlink" xml:space="preserve" xmlns:serif="http://www.serif.com/" style="fill-rule:evenodd;clip-rule:evenodd;stroke-linejoin:round;stroke-miterlimit:1.41421;"><g><path d="M81.855,244.026l0,-221.233l13.798,0l0,211.296l112.986,0l0,13.798l-35.311,0l0,-3.861l31.451,0l0,-6.076l-112.987,0l0,-211.296l-6.076,0l0,221.233l-14.627,0l0,-41.339l3.86,0l0,37.478c2.302,0 4.604,0 6.906,0Z" style="fill:#eb3a0e;fill-rule:nonzero;"/><rect x="71.089" y="140.275" width="3.861" height="53.479" style="fill:#3372df;fill-rule:nonzero;"/><rect x="71.089" y="22.793" width="3.861" height="105.584" style="fill:#3372df;fill-rule:nonzero;"/><rect x="91.792" y="244.026" width="69.023" height="3.861" style="fill:#3372df;fill-rule:nonzero;"/><rect x="101.756" y="224.15" width="106.884" height="3.861" style="fill:#eb3a0e;fill-rule:nonzero;"/><path d="M318.091,23.335l-18.864,51.626l-3.626,-1.325l17.167,-46.982l-6.464,0l-80.789,221.777l-3.628,-1.322l81.715,-224.316l14.11,0c0.126,0.181 0.253,0.362 0.379,0.542Z" style="fill:#3372df;fill-rule:nonzero;"/><path d="M296.349,82.877l-23.023,63.254l-3.628,-1.321l23.023,-63.254c1.209,0.44 2.419,0.88 3.628,1.321Z" style="fill:#eb3a0e;fill-rule:nonzero;"/><path d="M328.933,22.793l14.94,40.959l-3.627,1.323l-13.436,-36.837l-79.945,219.649l-14.11,0l-0.377,-0.54l31.196,-85.71l3.628,1.321l-29.507,81.068l6.466,0l80.522,-221.233c1.417,0 2.834,0 4.25,0Z" style="fill:#eb3a0e;fill-rule:nonzero;"/><path d="M409.525,244.026l6.466,0l-27.486,-75.515l3.628,-1.321l29.175,80.157l-0.377,0.54l-14.11,0l-63.358,-174.075l3.628,-1.321c20.811,57.178 41.622,114.357 62.434,171.535Z" style="fill:#3372df;fill-rule:nonzero;"/><path d="M361.786,53.763l-3.628,1.321l-10.347,-28.43l-6.229,0l48.414,133.018l-3.628,1.32l-50.104,-137.66l0.378,-0.539l13.872,0c3.757,10.323 7.515,20.647 11.272,30.97Z" style="fill:#eb3a0e;fill-rule:nonzero;"/><path d="M402.523,165.687l-3.628,1.321l-38.421,-105.562l3.628,-1.32c12.807,35.187 25.614,70.374 38.421,105.561Z" style="fill:#eb3a0e;fill-rule:nonzero;"/><path d="M431.796,247.11l-3.628,1.32l-26.082,-71.661l3.628,-1.32c8.694,23.887 17.388,47.774 26.082,71.661Z" style="fill:#eb3a0e;fill-rule:nonzero;"/><path d="M512.481,14.17c35.123,0.268 73.045,20.312 76.732,58.142c0.15,1.534 0.226,3.073 0.248,4.613l0.016,2.347l-3.861,0.026c-0.067,-10.074 -2.486,-20.045 -7.879,-28.628c-13.771,-21.919 -41.125,-32.455 -65.276,-32.64l-2.396,-0.006l0.01,-3.861c0.802,0.002 1.604,0.004 2.406,0.007Z" style="fill:#3372df;fill-rule:nonzero;"/><path d="M482.765,23.39l-2.394,0.983c-0.599,0.252 -0.598,0.251 -1.195,0.508c-24.697,10.841 -44.487,35.055 -42.079,62.37c2.279,25.863 23.25,51.344 47.364,55.071l2.199,0.321l-0.558,3.82c-34.448,-5.033 -60.14,-44.067 -51.057,-78.379c5.654,-21.361 23.064,-38.546 43.845,-47.276l2.408,-0.989c0.489,1.19 0.978,2.38 1.467,3.571Z" style="fill:#3372df;fill-rule:nonzero;"/><path d="M512.792,146.31c26.179,2.807 54.212,22.498 45.333,51.841c-8.75,28.914 -52.608,41.432 -79.335,20.74c-7.488,-5.797 -12.737,-14.44 -13.985,-23.818c0,0 -11.83,-0.219 -11.83,-0.219c0.357,2.119 0.472,2.493 0.769,3.663c0.485,1.909 1.092,3.786 1.813,5.618c6.532,16.601 22.018,28.796 39.195,33.562l2.405,0.645l-1,3.729l-2.421,-0.65c-22.434,-6.224 -41.663,-24.113 -44.837,-47.733c0,0 -0.311,-2.684 -0.311,-2.684l19.723,-0.048c1.078,14.049 10.887,26.038 23.847,30.97c19.122,7.276 43.072,3.027 55.836,-12.834c9.165,-11.389 10.396,-28.893 1.498,-40.697c-8.427,-11.179 -23.058,-16.74 -37.097,-18.245l-2.507,-0.249l0.382,-3.842c0.841,0.084 1.681,0.167 2.522,0.251Z" style="fill:#3372df;fill-rule:nonzero;"/><path d="M512.385,26.615c29.54,0.233 61.581,17.942 63.732,47.834c0.064,0.889 0.093,1.779 0.098,2.671l-0.005,2.273l-22.368,-0.228c-0.062,-5.191 -0.96,-10.355 -3.613,-14.93c-15.557,-26.828 -63.807,-24.942 -78.32,4.002c-5.413,10.796 -4.429,24.424 2.65,34.385c8.873,12.487 25.185,17.419 40.475,17.851c37.81,1.263 76.76,28.451 75.892,68.24c-0.926,42.408 -48.55,75.115 -96.753,66.174c-11.2,-2.078 -22.162,-6.083 -31.092,-13.166l-2.345,-1.941l2.47,-2.967c35.536,29.584 99.665,17.27 118.866,-25.974c9.297,-20.94 4.39,-47.099 -11.746,-63.671c-15.198,-15.609 -37.396,-22.484 -59.544,-22.894c-21.829,-0.521 -43.721,-15.067 -46.117,-36.944c-1.675,-15.294 7.115,-30.7 21.091,-38.836c24.417,-14.216 62.466,-6.462 70.624,20.229c0.795,2.6 1.226,6.62 1.226,6.62l14.706,0.149c-0.909,-18.199 -16.979,-32.792 -32.387,-39.323c-29.115,-12.343 -68.137,-3.973 -83.414,25.5c-8.003,15.44 -6.559,35.177 3.973,49.238c12.359,16.5 34.391,23.042 54.98,23.632c24.046,0.803 49.001,12.874 57.262,35.479c6.41,17.542 1.741,38.306 -10.921,52.196c-12.401,13.602 -30.881,20.864 -49.395,21.018l-2.335,0.006l-0.011,-3.86c27.456,-0.076 56.123,-15.625 61.118,-44.133c3.117,-17.789 -5.077,-36.757 -20.989,-46.924c-12.09,-7.724 -26.979,-9.542 -41.089,-10.016c-24.29,-0.941 -48.738,-14.02 -57.954,-35.935c-7.34,-17.455 -3.406,-38.658 9.342,-53.347c12.474,-14.371 31.602,-22.14 50.676,-22.404c0.406,-0.003 0.812,-0.005 1.217,-0.004Z" style="fill:#eb3a0e;fill-rule:nonzero;"/><path d="M437.234,193.409c0.234,12.375 6.134,24.42 14.83,33.482l1.766,1.802l-2.756,2.704c-10.075,-10.27 -17.428,-23.508 -17.7,-37.931l-0.025,-2.243l3.86,-0.043c0.009,0.743 0.017,1.486 0.025,2.229Z" style="fill:#eb3a0e;fill-rule:nonzero;"/><rect x="610.363" y="137.416" width="3.861" height="110.471" style="fill:#eb3a0e;fill-rule:nonzero;"/><rect x="610.363" y="52.089" width="3.861" height="66.013" style="fill:#3372df;fill-rule:nonzero;"/><path d="M624.165,244.026l110.429,0l0,-6.157l-104.353,0l0,-13.875l108.352,0l0,3.861l-104.491,0l0,6.153l104.353,0l0,13.879l-118.151,0l0,-221.233l-6.08,0l0,13.967l-3.861,0l0,-17.828l13.802,0c0,73.744 0,147.489 0,221.233Z" style="fill:#eb3a0e;fill-rule:nonzero;"/><path d="M738.593,26.654l-104.686,0l0,5.881l65.089,0l0,3.861l-68.95,0l0,-13.603l108.547,0c0,1.287 0,2.574 0,3.861Z" style="fill:#3372df;fill-rule:nonzero;"/><path d="M738.593,46.159l-104.686,0l0,77.377l89.569,0l0,13.698l-11.648,0l0,-3.86l7.787,0l0,-5.978l-89.569,0l0,-85.098l104.687,0l0,-5.902l-22.75,0l0,-3.861l26.61,0c0,4.542 0,9.083 0,13.624Z" style="fill:#eb3a0e;fill-rule:nonzero;"/><path d="M703.096,137.234l-69.189,0l0,5.978l32.328,0l0,3.861l-36.189,0l0,-13.699l73.05,0c0,1.287 0,2.574 0,3.86Z" style="fill:#3372df;fill-rule:nonzero;"/><rect x="676.262" y="143.212" width="47.2" height="3.861" style="fill:#eb3a0e;fill-rule:nonzero;"/><rect x="630.046" y="156.741" width="3.861" height="58.476" style="fill:#3372df;fill-rule:nonzero;"/><rect x="759.567" y="63.942" width="3.861" height="120.222" style="fill:#3372df;fill-rule:nonzero;"/><rect x="759.567" y="200.027" width="3.861" height="47.859" style="fill:#3372df;fill-rule:nonzero;"/><path d="M829.782,42.743c16.664,0.259 32.412,11.756 37.506,27.806c7.451,23.476 -10.781,51.688 -37.753,51.941c0,0 -46.208,0 -46.208,0l0,125.397l-13.91,0l0,-221.233l-5.989,0l0,22.003l-3.861,0l0,-25.864l13.711,0l0,221.233l6.188,0l0,-125.396c16.756,0 33.513,0.154 50.268,-0.003c16.236,-0.252 31.339,-12.363 34.774,-28.516c4.407,-20.723 -12.537,-43.439 -35.224,-43.51l-45.957,0l0,47.537l-3.861,0l0,-51.398c16.772,0 33.545,-0.152 50.316,0.003Z" style="fill:#eb3a0e;fill-rule:nonzero;"/><path d="M838.079,22.802c26.383,1.158 49.727,27.338 50.563,49.668l0.058,2.216l-3.86,0.1c-0.627,-24.251 -24.332,-47.135 -46.915,-48.126c0,0 -54.609,-0.006 -54.609,-0.006l0,5.978l44.541,0c3.425,0.015 4.049,0.091 5.969,0.265c21.613,1.96 40.566,18.964 44.559,40.29c3.912,20.901 -6.232,44.362 -25.577,54.004c-7.695,3.835 -16.377,5.383 -24.951,5.421l-31.814,0l65.963,78.612l-2.957,2.482l-70.099,-83.541l0.659,-1.414l38.239,0c3.121,-0.014 3.634,-0.076 5.339,-0.22c19.644,-1.66 37.031,-16.496 41.174,-35.98c4.163,-19.574 -5.084,-41.885 -23.278,-51c-7.156,-3.584 -15.246,-5.022 -23.235,-5.059l-48.393,0l0,-13.699c19.542,0 39.095,-0.69 58.624,0.009Z" style="fill:#3372df;fill-rule:nonzero;"/><path d="M891.35,246.194l-2.958,2.482l-21.277,-25.358l2.957,-2.482c7.093,8.453 14.185,16.906 21.278,25.358Z" style="fill:#eb3a0e;fill-rule:nonzero;"/><path d="M878.143,246.473l-0.659,1.414l-16.156,0l-70.707,-84.266l2.957,-2.482l69.55,82.887l7.922,0l-67.747,-80.738l2.957,-2.481c23.961,28.555 47.922,57.111 71.883,85.666Z" style="fill:#eb3a0e;fill-rule:nonzero;"/><rect x="0.5" y="313.103" width="3.861" height="120.222" style="fill:#3372df;fill-rule:nonzero;"/><rect x="0.5" y="449.188" width="3.861" height="47.859" style="fill:#3372df;fill-rule:nonzero;"/><path d="M70.715,291.904c16.663,0.257 32.412,11.756 37.506,27.806c7.45,23.476 -10.781,51.688 -37.754,51.941c0,0 -46.208,0 -46.208,0l0,125.396l-13.909,0l0,-221.232l-5.989,0l0,22.003l-3.861,0l0,-25.864l13.71,0l0,221.233l6.189,0l0,-125.396c16.756,0 33.513,0.154 50.268,-0.003c16.234,-0.25 31.339,-12.363 34.774,-28.516c4.403,-20.709 -12.39,-43.439 -35.224,-43.51l-45.958,0l0,47.537l-3.86,0l0,-51.398c16.772,0 33.545,-0.153 50.316,0.003Z" style="fill:#eb3a0e;fill-rule:nonzero;"/><path d="M79.012,271.963c16.748,0.733 31.563,12.616 41.124,25.943c5.049,7.037 9.117,15.083 9.439,23.725l0.058,2.215l-3.859,0.102c-0.641,-24.372 -24.454,-47.145 -46.916,-48.127c0,0 -54.609,-0.006 -54.609,-0.006l0,5.978l44.541,0c3.424,0.015 4.048,0.091 5.969,0.265c21.375,1.937 40.217,18.547 44.438,39.672c4.217,21.098 -5.967,44.906 -25.456,54.621c-7.695,3.837 -16.378,5.384 -24.951,5.422l-37.635,0l0,-3.861l37.626,0c17.071,-0.076 34.046,-8.666 42.087,-23.956c14.037,-26.69 -1.842,-66.143 -38.517,-68.204c-1.189,-0.066 -2.379,-0.093 -3.57,-0.099l-48.393,0l0,-13.699c19.541,0 39.095,-0.694 58.624,0.009Z" style="fill:#3372df;fill-rule:nonzero;"/><rect x="142.12" y="313.103" width="3.861" height="120.222" style="fill:#3372df;fill-rule:nonzero;"/><rect x="142.12" y="449.188" width="3.861" height="47.859" style="fill:#3372df;fill-rule:nonzero;"/><path d="M212.335,291.904c16.664,0.257 32.412,11.756 37.506,27.806c7.451,23.476 -10.781,51.688 -37.753,51.941c0,0 -46.208,0 -46.208,0l0,125.396l-13.91,0l0,-221.232l-5.989,0l0,22.003l-3.861,0l0,-25.864l13.711,0l0,221.233l6.188,0l0,-125.396c16.756,0 33.513,0.154 50.268,-0.003c16.235,-0.25 31.339,-12.363 34.774,-28.516c4.403,-20.709 -12.39,-43.439 -35.224,-43.51l-45.957,0l0,47.537l-3.861,0l0,-51.398c16.772,0 33.545,-0.153 50.316,0.003Z" style="fill:#eb3a0e;fill-rule:nonzero;"/><path d="M220.632,271.963c16.748,0.735 31.563,12.617 41.124,25.943c5.053,7.042 9.119,15.121 9.439,23.725l0.059,2.215l-3.86,0.102c-0.641,-24.286 -24.333,-47.137 -46.916,-48.127c0,0 -54.609,-0.006 -54.609,-0.006l0,5.978l44.541,0c3.424,0.015 4.049,0.091 5.969,0.265c21.037,1.907 39.685,17.941 44.245,38.747c4.675,21.333 -5.476,45.682 -25.263,55.546c-7.695,3.837 -16.378,5.383 -24.951,5.422l-31.814,0l65.963,78.612l-2.957,2.482l-70.099,-83.541l0.659,-1.414l38.239,0c3.121,-0.014 3.633,-0.076 5.338,-0.221c19.722,-1.666 37.192,-16.657 41.235,-36.264c4.023,-19.511 -5.283,-41.668 -23.339,-50.715c-7.155,-3.585 -15.245,-5.022 -23.234,-5.059l-48.393,0l0,-13.699c19.541,0 39.095,-0.692 58.624,0.009Z" style="fill:#3372df;fill-rule:nonzero;"/><path d="M273.903,495.355l-2.958,2.482l-21.278,-25.358l2.958,-2.482c7.092,8.453 14.185,16.905 21.278,25.358Z" style="fill:#eb3a0e;fill-rule:nonzero;"/><path d="M260.696,495.634l-0.659,1.414l-16.156,0l-70.707,-84.266l2.957,-2.482l69.55,82.887l7.921,0l-67.746,-80.738l2.957,-2.481c23.961,28.555 47.922,57.111 71.883,85.666Z" style="fill:#eb3a0e;fill-rule:nonzero;"/><path d="M395.045,271.956c12.328,0.091 24.58,2.359 36.258,6.15l-1.192,3.672c-23.833,-7.737 -49.905,-7.47 -73.663,0.86l-1.277,-3.643c12.838,-4.502 26.221,-7.073 39.874,-7.039Z" style="fill:#3372df;fill-rule:nonzero;"/><path d="M472.486,303.409c12.771,12.335 22.578,27.603 28.415,44.425l0.764,2.228l-3.652,1.252c-5.789,-16.887 -15.161,-32.526 -28.204,-45.123l-1.689,-1.619l2.672,-2.787c0.564,0.541 1.129,1.083 1.694,1.624Z" style="fill:#eb3a0e;fill-rule:nonzero;"/><path d="M507.025,382.577c-0.098,30.31 -11.682,60.276 -33.394,81.898l-1.86,1.83l-2.708,-2.752c20.877,-20.541 33.806,-48.59 34.093,-78.339l0.009,-2.65c1.287,0.004 2.574,0.009 3.86,0.013Z" style="fill:#3372df;fill-rule:nonzero;"/><path d="M443.608,485.793c-24.826,11.453 -52.989,14.457 -79.473,7.111l-2.784,-0.796l1.064,-3.711c25.45,7.299 53.055,5.93 77.164,-4.997l2.412,-1.113c0.539,1.169 1.078,2.337 1.617,3.506Z" style="fill:#eb3a0e;fill-rule:nonzero;"/><path d="M288.004,406.433c5.885,28.2 23.361,53.598 47.447,69.325l2.2,1.418l-2.09,3.245l-2.211,-1.424c-24.88,-16.245 -43.015,-42.496 -49.128,-71.788l-0.525,-2.601l3.785,-0.763c0.174,0.862 0.348,1.725 0.522,2.588Z" style="fill:#3372df;fill-rule:nonzero;"/><path d="M321.911,303.519c-20.182,18.844 -33.611,44.616 -35.813,72.704l-0.188,2.596l-3.851,-0.279l0.189,-2.608c2.174,-27.718 14.877,-54.332 35.146,-73.477l1.882,-1.758c0.879,0.941 1.757,1.882 2.635,2.822Z" style="fill:#eb3a0e;fill-rule:nonzero;"/><path d="M395.119,284.447c36.711,0.351 72.255,22.424 88.73,55.058c13.771,27.276 14.052,60.888 0.805,88.36c-21.632,44.861 -79.654,69.401 -128.552,49.059c-31.939,-13.288 -55.913,-44.168 -60.714,-78.44c-4.426,-31.594 7.308,-64.958 30.501,-86.81c18.172,-17.121 42.741,-26.986 67.937,-27.227c0.431,-0.001 0.862,-0.001 1.293,0Zm-1.268,3.861c-44.054,0.421 -85.456,34.215 -93.851,77.991c-5.994,31.254 4.736,65.263 27.701,87.422c26.639,25.704 68.683,34.188 103.659,19.638c30.709,-12.775 53.759,-42.471 58.374,-75.411c5.687,-40.597 -17.725,-83.686 -55.159,-100.898c-12.728,-5.852 -26.908,-8.786 -40.724,-8.742Z" style="fill:#eb3a0e;fill-rule:nonzero;"/><path d="M395.039,296.868c28.043,0.267 55.529,14.752 71.496,37.777c14.501,20.91 19.215,48.184 12.477,73.003l-0.718,2.567l-3.717,-1.043c5.397,-19.242 4.599,-39.81 -3.117,-57.734c-12.782,-29.691 -43.781,-50.398 -76.446,-50.71l-2.478,-0.008l0.012,-3.86c0.83,0.002 1.661,0.005 2.491,0.008Z" style="fill:#eb3a0e;fill-rule:nonzero;"/><path d="M312.514,401.915c5.701,26.573 25.111,49.85 50.271,60.151c25.009,10.239 55.004,7.364 77.636,-7.522c6.404,-4.212 12.225,-9.302 17.257,-15.083c2.377,-2.73 4.566,-5.621 6.586,-8.632l1.421,-2.151l3.222,2.127l-1.429,2.164c-12.459,18.565 -31.892,32.057 -53.471,36.977c-27.063,6.171 -56.889,-1.443 -77.675,-19.895c-13.906,-12.344 -23.697,-29.169 -27.595,-47.336l-0.491,-2.351l3.779,-0.79c0.163,0.781 0.326,1.561 0.489,2.341Z" style="fill:#3372df;fill-rule:nonzero;"/><path d="M360.823,307.739c-29.32,13.786 -49.745,43.207 -50.121,75.975l-0.008,2.721l-3.861,-0.008c0.039,-17.189 4.41,-34.246 13.481,-48.616c8.851,-14.022 21.706,-25.416 36.774,-32.581l2.092,-0.984c0.548,1.164 1.096,2.329 1.643,3.493Z" style="fill:#3372df;fill-rule:nonzero;"/><path d="M543.383,493.187l0,-221.233l127.473,0l0,3.861l-123.612,0l0,221.232l-14.627,0l0,-41.338l3.86,0l0,37.478c2.302,0 4.604,0 6.906,0Z" style="fill:#eb3a0e;fill-rule:nonzero;"/><rect x="532.617" y="389.436" width="3.861" height="53.479" style="fill:#3372df;fill-rule:nonzero;"/><rect x="532.617" y="271.954" width="3.861" height="105.584" style="fill:#eb3a0e;fill-rule:nonzero;"/><path d="M670.856,295.388l-113.822,0l0,72.876l96.529,0l0,23.819l-100.39,0l0,-13.957l90.455,0l0,3.861l-86.594,0l0,6.235l92.669,0l0,-16.097l-96.53,0l0,-80.597l113.823,0l0,-5.926l-113.823,0l0,-3.861l117.683,0c0,4.549 0,9.098 0,13.647Z" style="fill:#3372df;fill-rule:nonzero;"/><rect x="553.173" y="404.221" width="3.861" height="92.827" style="fill:#eb3a0e;fill-rule:nonzero;"/><path d="M702.708,493.187l0,-221.233l13.797,0l0,225.093l-3.86,0l0,-221.232l-6.076,0l0,221.232l-14.628,0l0,-41.338l3.861,0l0,37.478c2.302,0 4.604,0 6.906,0Z" style="fill:#eb3a0e;fill-rule:nonzero;"/><rect x="691.941" y="389.436" width="3.861" height="53.479" style="fill:#3372df;fill-rule:nonzero;"/><rect x="691.941" y="271.954" width="3.861" height="105.584" style="fill:#3372df;fill-rule:nonzero;"/><path d="M842.236,497.047l0,-3.86l31.451,0l0,-6.076l-112.987,0l0,-211.296l-6.076,0l0,221.232l-14.627,0l0,-41.338l3.86,0l0,37.478l6.907,0l0,-221.233l13.797,0l0,211.296l112.986,0l0,13.797c-11.77,0 -23.54,0 -35.311,0Z" style="fill:#eb3a0e;fill-rule:nonzero;"/><rect x="739.997" y="389.436" width="3.861" height="53.479" style="fill:#3372df;fill-rule:nonzero;"/><rect x="739.997" y="271.954" width="3.861" height="105.584" style="fill:#3372df;fill-rule:nonzero;"/><rect x="760.7" y="493.187" width="69.023" height="3.861" style="fill:#3372df;fill-rule:nonzero;"/><rect x="770.664" y="473.31" width="106.883" height="3.861" style="fill:#3372df;fill-rule:nonzero;"/><rect x="895.27" y="386.577" width="3.861" height="110.471" style="fill:#eb3a0e;fill-rule:nonzero;"/><rect x="895.27" y="301.25" width="3.861" height="66.013" style="fill:#3372df;fill-rule:nonzero;"/><path d="M909.072,493.187l110.429,0l0,-6.157l-104.353,0l0,-13.875l108.352,0l0,3.861l-104.492,0l0,6.153l104.354,0l0,13.878l-118.151,0l0,-221.232l-6.081,0l0,13.967l-3.86,0l0,-17.828l13.802,0c0,73.744 0,147.489 0,221.233Z" style="fill:#eb3a0e;fill-rule:nonzero;"/><path d="M1023.5,275.815l-104.686,0l0,5.881l65.089,0l0,3.861l-68.95,0l0,-13.603l108.547,0c0,1.287 0,2.574 0,3.861Z" style="fill:#3372df;fill-rule:nonzero;"/><path d="M1023.5,295.32l-104.686,0l0,77.377l89.569,0l0,13.698l-11.649,0l0,-3.86l7.788,0l0,-5.978l-89.569,0l0,-85.098l104.686,0l0,-5.902l-22.75,0l0,-3.861l26.611,0c0,4.542 0,9.083 0,13.624Z" style="fill:#eb3a0e;fill-rule:nonzero;"/><path d="M988.003,386.395l-69.189,0l0,5.978l32.328,0l0,3.86l-36.189,0l0,-13.698l73.05,0c0,1.287 0,2.573 0,3.86Z" style="fill:#eb3a0e;fill-rule:nonzero;"/><rect x="961.169" y="392.373" width="47.2" height="3.861" style="fill:#3372df;fill-rule:nonzero;"/><rect x="914.953" y="405.902" width="3.861" height="58.476" style="fill:#3372df;fill-rule:nonzero;"/></g><g><path d="M81.855,244.026l0,-221.233l13.798,0l0,211.296l112.986,0l0,13.798l-35.311,0l0,-3.861l31.451,0l0,-6.076l-112.987,0l0,-211.296l-6.076,0l0,221.233l-14.627,0l0,-41.339l3.86,0l0,37.478c2.302,0 4.604,0 6.906,0Z" style="fill:#eb3a0e;fill-rule:nonzero;"/><rect x="71.089" y="140.275" width="3.861" height="53.479" style="fill:#3372df;fill-rule:nonzero;"/><rect x="71.089" y="22.793" width="3.861" height="105.584" style="fill:#3372df;fill-rule:nonzero;"/><rect x="91.792" y="244.026" width="69.023" height="3.861" style="fill:#3372df;fill-rule:nonzero;"/><rect x="101.756" y="224.15" width="106.884" height="3.861" style="fill:#eb3a0e;fill-rule:nonzero;"/><path d="M318.091,23.335l-18.864,51.626l-3.626,-1.325l17.167,-46.982l-6.464,0l-80.789,221.777l-3.628,-1.322l81.715,-224.316l14.11,0c0.126,0.181 0.253,0.362 0.379,0.542Z" style="fill:#3372df;fill-rule:nonzero;"/><path d="M296.349,82.877l-23.023,63.254l-3.628,-1.321l23.023,-63.254c1.209,0.44 2.419,0.88 3.628,1.321Z" style="fill:#eb3a0e;fill-rule:nonzero;"/><path d="M328.933,22.793l14.94,40.959l-3.627,1.323l-13.436,-36.837l-79.945,219.649l-14.11,0l-0.377,-0.54l31.196,-85.71l3.628,1.321l-29.507,81.068l6.466,0l80.522,-221.233c1.417,0 2.834,0 4.25,0Z" style="fill:#eb3a0e;fill-rule:nonzero;"/><path d="M409.525,244.026l6.466,0l-27.486,-75.515l3.628,-1.321l29.175,80.157l-0.377,0.54l-14.11,0l-63.358,-174.075l3.628,-1.321c20.811,57.178 41.622,114.357 62.434,171.535Z" style="fill:#3372df;fill-rule:nonzero;"/><path d="M361.786,53.763l-3.628,1.321l-10.347,-28.43l-6.229,0l48.414,133.018l-3.628,1.32l-50.104,-137.66l0.378,-0.539l13.872,0c3.757,10.323 7.515,20.647 11.272,30.97Z" style="fill:#eb3a0e;fill-rule:nonzero;"/><path d="M402.523,165.687l-3.628,1.321l-38.421,-105.562l3.628,-1.32c12.807,35.187 25.614,70.374 38.421,105.561Z" style="fill:#eb3a0e;fill-rule:nonzero;"/><path d="M431.796,247.11l-3.628,1.32l-26.082,-71.661l3.628,-1.32c8.694,23.887 17.388,47.774 26.082,71.661Z" style="fill:#eb3a0e;fill-rule:nonzero;"/><path d="M512.481,14.17c35.123,0.268 73.045,20.312 76.732,58.142c0.15,1.534 0.226,3.073 0.248,4.613l0.016,2.347l-3.861,0.026c-0.067,-10.074 -2.486,-20.045 -7.879,-28.628c-13.771,-21.919 -41.125,-32.455 -65.276,-32.64l-2.396,-0.006l0.01,-3.861c0.802,0.002 1.604,0.004 2.406,0.007Z" style="fill:#3372df;fill-rule:nonzero;"/><path d="M482.765,23.39l-2.394,0.983c-0.599,0.252 -0.598,0.251 -1.195,0.508c-24.697,10.841 -44.487,35.055 -42.079,62.37c2.279,25.863 23.25,51.344 47.364,55.071l2.199,0.321l-0.558,3.82c-34.448,-5.033 -60.14,-44.067 -51.057,-78.379c5.654,-21.361 23.064,-38.546 43.845,-47.276l2.408,-0.989c0.489,1.19 0.978,2.38 1.467,3.571Z" style="fill:#3372df;fill-rule:nonzero;"/><path d="M512.792,146.31c26.179,2.807 54.212,22.498 45.333,51.841c-8.75,28.914 -52.608,41.432 -79.335,20.74c-7.488,-5.797 -12.737,-14.44 -13.985,-23.818c0,0 -11.83,-0.219 -11.83,-0.219c0.357,2.119 0.472,2.493 0.769,3.663c0.485,1.909 1.092,3.786 1.813,5.618c6.532,16.601 22.018,28.796 39.195,33.562l2.405,0.645l-1,3.729l-2.421,-0.65c-22.434,-6.224 -41.663,-24.113 -44.837,-47.733c0,0 -0.311,-2.684 -0.311,-2.684l19.723,-0.048c1.078,14.049 10.887,26.038 23.847,30.97c19.122,7.276 43.072,3.027 55.836,-12.834c9.165,-11.389 10.396,-28.893 1.498,-40.697c-8.427,-11.179 -23.058,-16.74 -37.097,-18.245l-2.507,-0.249l0.382,-3.842c0.841,0.084 1.681,0.167 2.522,0.251Z" style="fill:#3372df;fill-rule:nonzero;"/><path d="M512.385,26.615c29.54,0.233 61.581,17.942 63.732,47.834c0.064,0.889 0.093,1.779 0.098,2.671l-0.005,2.273l-22.368,-0.228c-0.062,-5.191 -0.96,-10.355 -3.613,-14.93c-15.557,-26.828 -63.807,-24.942 -78.32,4.002c-5.413,10.796 -4.429,24.424 2.65,34.385c8.873,12.487 25.185,17.419 40.475,17.851c37.81,1.263 76.76,28.451 75.892,68.24c-0.926,42.408 -48.55,75.115 -96.753,66.174c-11.2,-2.078 -22.162,-6.083 -31.092,-13.166l-2.345,-1.941l2.47,-2.967c35.536,29.584 99.665,17.27 118.866,-25.974c9.297,-20.94 4.39,-47.099 -11.746,-63.671c-15.198,-15.609 -37.396,-22.484 -59.544,-22.894c-21.829,-0.521 -43.721,-15.067 -46.117,-36.944c-1.675,-15.294 7.115,-30.7 21.091,-38.836c24.417,-14.216 62.466,-6.462 70.624,20.229c0.795,2.6 1.226,6.62 1.226,6.62l14.706,0.149c-0.909,-18.199 -16.979,-32.792 -32.387,-39.323c-29.115,-12.343 -68.137,-3.973 -83.414,25.5c-8.003,15.44 -6.559,35.177 3.973,49.238c12.359,16.5 34.391,23.042 54.98,23.632c24.046,0.803 49.001,12.874 57.262,35.479c6.41,17.542 1.741,38.306 -10.921,52.196c-12.401,13.602 -30.881,20.864 -49.395,21.018l-2.335,0.006l-0.011,-3.86c27.456,-0.076 56.123,-15.625 61.118,-44.133c3.117,-17.789 -5.077,-36.757 -20.989,-46.924c-12.09,-7.724 -26.979,-9.542 -41.089,-10.016c-24.29,-0.941 -48.738,-14.02 -57.954,-35.935c-7.34,-17.455 -3.406,-38.658 9.342,-53.347c12.474,-14.371 31.602,-22.14 50.676,-22.404c0.406,-0.003 0.812,-0.005 1.217,-0.004Z" style="fill:#eb3a0e;fill-rule:nonzero;"/><path d="M437.234,193.409c0.234,12.375 6.134,24.42 14.83,33.482l1.766,1.802l-2.756,2.704c-10.075,-10.27 -17.428,-23.508 -17.7,-37.931l-0.025,-2.243l3.86,-0.043c0.009,0.743 0.017,1.486 0.025,2.229Z" style="fill:#eb3a0e;fill-rule:nonzero;"/><rect x="610.363" y="137.416" width="3.861" height="110.471" style="fill:#eb3a0e;fill-rule:nonzero;"/><rect x="610.363" y="52.089" width="3.861" height="66.013" style="fill:#3372df;fill-rule:nonzero;"/><path d="M624.165,244.026l110.429,0l0,-6.157l-104.353,0l0,-13.875l108.352,0l0,3.861l-104.491,0l0,6.153l104.353,0l0,13.879l-118.151,0l0,-221.233l-6.08,0l0,13.967l-3.861,0l0,-17.828l13.802,0c0,73.744 0,147.489 0,221.233Z" style="fill:#eb3a0e;fill-rule:nonzero;"/><path d="M738.593,26.654l-104.686,0l0,5.881l65.089,0l0,3.861l-68.95,0l0,-13.603l108.547,0c0,1.287 0,2.574 0,3.861Z" style="fill:#3372df;fill-rule:nonzero;"/><path d="M738.593,46.159l-104.686,0l0,77.377l89.569,0l0,13.698l-11.648,0l0,-3.86l7.787,0l0,-5.978l-89.569,0l0,-85.098l104.687,0l0,-5.902l-22.75,0l0,-3.861l26.61,0c0,4.542 0,9.083 0,13.624Z" style="fill:#eb3a0e;fill-rule:nonzero;"/><path d="M703.096,137.234l-69.189,0l0,5.978l32.328,0l0,3.861l-36.189,0l0,-13.699l73.05,0c0,1.287 0,2.574 0,3.86Z" style="fill:#3372df;fill-rule:nonzero;"/><rect x="676.262" y="143.212" width="47.2" height="3.861" style="fill:#eb3a0e;fill-rule:nonzero;"/><rect x="630.046" y="156.741" width="3.861" height="58.476" style="fill:#3372df;fill-rule:nonzero;"/><rect x="759.567" y="63.942" width="3.861" height="120.222" style="fill:#3372df;fill-rule:nonzero;"/><rect x="759.567" y="200.027" width="3.861" height="47.859" style="fill:#3372df;fill-rule:nonzero;"/><path d="M829.782,42.743c16.664,0.259 32.412,11.756 37.506,27.806c7.451,23.476 -10.781,51.688 -37.753,51.941c0,0 -46.208,0 -46.208,0l0,125.397l-13.91,0l0,-221.233l-5.989,0l0,22.003l-3.861,0l0,-25.864l13.711,0l0,221.233l6.188,0l0,-125.396c16.756,0 33.513,0.154 50.268,-0.003c16.236,-0.252 31.339,-12.363 34.774,-28.516c4.407,-20.723 -12.537,-43.439 -35.224,-43.51l-45.957,0l0,47.537l-3.861,0l0,-51.398c16.772,0 33.545,-0.152 50.316,0.003Z" style="fill:#eb3a0e;fill-rule:nonzero;"/><path d="M838.079,22.802c26.383,1.158 49.727,27.338 50.563,49.668l0.058,2.216l-3.86,0.1c-0.627,-24.251 -24.332,-47.135 -46.915,-48.126c0,0 -54.609,-0.006 -54.609,-0.006l0,5.978l44.541,0c3.425,0.015 4.049,0.091 5.969,0.265c21.613,1.96 40.566,18.964 44.559,40.29c3.912,20.901 -6.232,44.362 -25.577,54.004c-7.695,3.835 -16.377,5.383 -24.951,5.421l-31.814,0l65.963,78.612l-2.957,2.482l-70.099,-83.541l0.659,-1.414l38.239,0c3.121,-0.014 3.634,-0.076 5.339,-0.22c19.644,-1.66 37.031,-16.496 41.174,-35.98c4.163,-19.574 -5.084,-41.885 -23.278,-51c-7.156,-3.584 -15.246,-5.022 -23.235,-5.059l-48.393,0l0,-13.699c19.542,0 39.095,-0.69 58.624,0.009Z" style="fill:#3372df;fill-rule:nonzero;"/><path d="M891.35,246.194l-2.958,2.482l-21.277,-25.358l2.957,-2.482c7.093,8.453 14.185,16.906 21.278,25.358Z" style="fill:#eb3a0e;fill-rule:nonzero;"/><path d="M878.143,246.473l-0.659,1.414l-16.156,0l-70.707,-84.266l2.957,-2.482l69.55,82.887l7.922,0l-67.747,-80.738l2.957,-2.481c23.961,28.555 47.922,57.111 71.883,85.666Z" style="fill:#eb3a0e;fill-rule:nonzero;"/><rect x="0.5" y="313.103" width="3.861" height="120.222" style="fill:#3372df;fill-rule:nonzero;"/><rect x="0.5" y="449.188" width="3.861" height="47.859" style="fill:#3372df;fill-rule:nonzero;"/><path d="M70.715,291.904c16.663,0.257 32.412,11.756 37.506,27.806c7.45,23.476 -10.781,51.688 -37.754,51.941c0,0 -46.208,0 -46.208,0l0,125.396l-13.909,0l0,-221.232l-5.989,0l0,22.003l-3.861,0l0,-25.864l13.71,0l0,221.233l6.189,0l0,-125.396c16.756,0 33.513,0.154 50.268,-0.003c16.234,-0.25 31.339,-12.363 34.774,-28.516c4.403,-20.709 -12.39,-43.439 -35.224,-43.51l-45.958,0l0,47.537l-3.86,0l0,-51.398c16.772,0 33.545,-0.153 50.316,0.003Z" style="fill:#eb3a0e;fill-rule:nonzero;"/><path d="M79.012,271.963c16.748,0.733 31.563,12.616 41.124,25.943c5.049,7.037 9.117,15.083 9.439,23.725l0.058,2.215l-3.859,0.102c-0.641,-24.372 -24.454,-47.145 -46.916,-48.127c0,0 -54.609,-0.006 -54.609,-0.006l0,5.978l44.541,0c3.424,0.015 4.048,0.091 5.969,0.265c21.375,1.937 40.217,18.547 44.438,39.672c4.217,21.098 -5.967,44.906 -25.456,54.621c-7.695,3.837 -16.378,5.384 -24.951,5.422l-37.635,0l0,-3.861l37.626,0c17.071,-0.076 34.046,-8.666 42.087,-23.956c14.037,-26.69 -1.842,-66.143 -38.517,-68.204c-1.189,-0.066 -2.379,-0.093 -3.57,-0.099l-48.393,0l0,-13.699c19.541,0 39.095,-0.694 58.624,0.009Z" style="fill:#3372df;fill-rule:nonzero;"/><rect x="142.12" y="313.103" width="3.861" height="120.222" style="fill:#3372df;fill-rule:nonzero;"/><rect x="142.12" y="449.188" width="3.861" height="47.859" style="fill:#3372df;fill-rule:nonzero;"/><path d="M212.335,291.904c16.664,0.257 32.412,11.756 37.506,27.806c7.451,23.476 -10.781,51.688 -37.753,51.941c0,0 -46.208,0 -46.208,0l0,125.396l-13.91,0l0,-221.232l-5.989,0l0,22.003l-3.861,0l0,-25.864l13.711,0l0,221.233l6.188,0l0,-125.396c16.756,0 33.513,0.154 50.268,-0.003c16.235,-0.25 31.339,-12.363 34.774,-28.516c4.403,-20.709 -12.39,-43.439 -35.224,-43.51l-45.957,0l0,47.537l-3.861,0l0,-51.398c16.772,0 33.545,-0.153 50.316,0.003Z" style="fill:#eb3a0e;fill-rule:nonzero;"/><path d="M220.632,271.963c16.748,0.735 31.563,12.617 41.124,25.943c5.053,7.042 9.119,15.121 9.439,23.725l0.059,2.215l-3.86,0.102c-0.641,-24.286 -24.333,-47.137 -46.916,-48.127c0,0 -54.609,-0.006 -54.609,-0.006l0,5.978l44.541,0c3.424,0.015 4.049,0.091 5.969,0.265c21.037,1.907 39.685,17.941 44.245,38.747c4.675,21.333 -5.476,45.682 -25.263,55.546c-7.695,3.837 -16.378,5.383 -24.951,5.422l-31.814,0l65.963,78.612l-2.957,2.482l-70.099,-83.541l0.659,-1.414l38.239,0c3.121,-0.014 3.633,-0.076 5.338,-0.221c19.722,-1.666 37.192,-16.657 41.235,-36.264c4.023,-19.511 -5.283,-41.668 -23.339,-50.715c-7.155,-3.585 -15.245,-5.022 -23.234,-5.059l-48.393,0l0,-13.699c19.541,0 39.095,-0.692 58.624,0.009Z" style="fill:#3372df;fill-rule:nonzero;"/><path d="M273.903,495.355l-2.958,2.482l-21.278,-25.358l2.958,-2.482c7.092,8.453 14.185,16.905 21.278,25.358Z" style="fill:#eb3a0e;fill-rule:nonzero;"/><path d="M260.696,495.634l-0.659,1.414l-16.156,0l-70.707,-84.266l2.957,-2.482l69.55,82.887l7.921,0l-67.746,-80.738l2.957,-2.481c23.961,28.555 47.922,57.111 71.883,85.666Z" style="fill:#eb3a0e;fill-rule:nonzero;"/><path d="M395.045,271.956c12.328,0.091 24.58,2.359 36.258,6.15l-1.192,3.672c-23.833,-7.737 -49.905,-7.47 -73.663,0.86l-1.277,-3.643c12.838,-4.502 26.221,-7.073 39.874,-7.039Z" style="fill:#3372df;fill-rule:nonzero;"/><path d="M472.486,303.409c12.771,12.335 22.578,27.603 28.415,44.425l0.764,2.228l-3.652,1.252c-5.789,-16.887 -15.161,-32.526 -28.204,-45.123l-1.689,-1.619l2.672,-2.787c0.564,0.541 1.129,1.083 1.694,1.624Z" style="fill:#eb3a0e;fill-rule:nonzero;"/><path d="M507.025,382.577c-0.098,30.31 -11.682,60.276 -33.394,81.898l-1.86,1.83l-2.708,-2.752c20.877,-20.541 33.806,-48.59 34.093,-78.339l0.009,-2.65c1.287,0.004 2.574,0.009 3.86,0.013Z" style="fill:#3372df;fill-rule:nonzero;"/><path d="M443.608,485.793c-24.826,11.453 -52.989,14.457 -79.473,7.111l-2.784,-0.796l1.064,-3.711c25.45,7.299 53.055,5.93 77.164,-4.997l2.412,-1.113c0.539,1.169 1.078,2.337 1.617,3.506Z" style="fill:#eb3a0e;fill-rule:nonzero;"/><path d="M288.004,406.433c5.885,28.2 23.361,53.598 47.447,69.325l2.2,1.418l-2.09,3.245l-2.211,-1.424c-24.88,-16.245 -43.015,-42.496 -49.128,-71.788l-0.525,-2.601l3.785,-0.763c0.174,0.862 0.348,1.725 0.522,2.588Z" style="fill:#3372df;fill-rule:nonzero;"/><path d="M321.911,303.519c-20.182,18.844 -33.611,44.616 -35.813,72.704l-0.188,2.596l-3.851,-0.279l0.189,-2.608c2.174,-27.718 14.877,-54.332 35.146,-73.477l1.882,-1.758c0.879,0.941 1.757,1.882 2.635,2.822Z" style="fill:#eb3a0e;fill-rule:nonzero;"/><path d="M395.119,284.447c36.711,0.351 72.255,22.424 88.73,55.058c13.771,27.276 14.052,60.888 0.805,88.36c-21.632,44.861 -79.654,69.401 -128.552,49.059c-31.939,-13.288 -55.913,-44.168 -60.714,-78.44c-4.426,-31.594 7.308,-64.958 30.501,-86.81c18.172,-17.121 42.741,-26.986 67.937,-27.227c0.431,-0.001 0.862,-0.001 1.293,0Zm-1.268,3.861c-44.054,0.421 -85.456,34.215 -93.851,77.991c-5.994,31.254 4.736,65.263 27.701,87.422c26.639,25.704 68.683,34.188 103.659,19.638c30.709,-12.775 53.759,-42.471 58.374,-75.411c5.687,-40.597 -17.725,-83.686 -55.159,-100.898c-12.728,-5.852 -26.908,-8.786 -40.724,-8.742Z" style="fill:#eb3a0e;fill-rule:nonzero;"/><path d="M395.039,296.868c28.043,0.267 55.529,14.752 71.496,37.777c14.501,20.91 19.215,48.184 12.477,73.003l-0.718,2.567l-3.717,-1.043c5.397,-19.242 4.599,-39.81 -3.117,-57.734c-12.782,-29.691 -43.781,-50.398 -76.446,-50.71l-2.478,-0.008l0.012,-3.86c0.83,0.002 1.661,0.005 2.491,0.008Z" style="fill:#eb3a0e;fill-rule:nonzero;"/><path d="M312.514,401.915c5.701,26.573 25.111,49.85 50.271,60.151c25.009,10.239 55.004,7.364 77.636,-7.522c6.404,-4.212 12.225,-9.302 17.257,-15.083c2.377,-2.73 4.566,-5.621 6.586,-8.632l1.421,-2.151l3.222,2.127l-1.429,2.164c-12.459,18.565 -31.892,32.057 -53.471,36.977c-27.063,6.171 -56.889,-1.443 -77.675,-19.895c-13.906,-12.344 -23.697,-29.169 -27.595,-47.336l-0.491,-2.351l3.779,-0.79c0.163,0.781 0.326,1.561 0.489,2.341Z" style="fill:#3372df;fill-rule:nonzero;"/><path d="M360.823,307.739c-29.32,13.786 -49.745,43.207 -50.121,75.975l-0.008,2.721l-3.861,-0.008c0.039,-17.189 4.41,-34.246 13.481,-48.616c8.851,-14.022 21.706,-25.416 36.774,-32.581l2.092,-0.984c0.548,1.164 1.096,2.329 1.643,3.493Z" style="fill:#3372df;fill-rule:nonzero;"/><path d="M543.383,493.187l0,-221.233l127.473,0l0,3.861l-123.612,0l0,221.232l-14.627,0l0,-41.338l3.86,0l0,37.478c2.302,0 4.604,0 6.906,0Z" style="fill:#eb3a0e;fill-rule:nonzero;"/><rect x="532.617" y="389.436" width="3.861" height="53.479" style="fill:#3372df;fill-rule:nonzero;"/><rect x="532.617" y="271.954" width="3.861" height="105.584" style="fill:#eb3a0e;fill-rule:nonzero;"/><path d="M670.856,295.388l-113.822,0l0,72.876l96.529,0l0,23.819l-100.39,0l0,-13.957l90.455,0l0,3.861l-86.594,0l0,6.235l92.669,0l0,-16.097l-96.53,0l0,-80.597l113.823,0l0,-5.926l-113.823,0l0,-3.861l117.683,0c0,4.549 0,9.098 0,13.647Z" style="fill:#3372df;fill-rule:nonzero;"/><rect x="553.173" y="404.221" width="3.861" height="92.827" style="fill:#eb3a0e;fill-rule:nonzero;"/><path d="M702.708,493.187l0,-221.233l13.797,0l0,225.093l-3.86,0l0,-221.232l-6.076,0l0,221.232l-14.628,0l0,-41.338l3.861,0l0,37.478c2.302,0 4.604,0 6.906,0Z" style="fill:#eb3a0e;fill-rule:nonzero;"/><rect x="691.941" y="389.436" width="3.861" height="53.479" style="fill:#3372df;fill-rule:nonzero;"/><rect x="691.941" y="271.954" width="3.861" height="105.584" style="fill:#3372df;fill-rule:nonzero;"/><path d="M842.236,497.047l0,-3.86l31.451,0l0,-6.076l-112.987,0l0,-211.296l-6.076,0l0,221.232l-14.627,0l0,-41.338l3.86,0l0,37.478l6.907,0l0,-221.233l13.797,0l0,211.296l112.986,0l0,13.797c-11.77,0 -23.54,0 -35.311,0Z" style="fill:#eb3a0e;fill-rule:nonzero;"/><rect x="739.997" y="389.436" width="3.861" height="53.479" style="fill:#3372df;fill-rule:nonzero;"/><rect x="739.997" y="271.954" width="3.861" height="105.584" style="fill:#3372df;fill-rule:nonzero;"/><rect x="760.7" y="493.187" width="69.023" height="3.861" style="fill:#3372df;fill-rule:nonzero;"/><rect x="770.664" y="473.31" width="106.883" height="3.861" style="fill:#3372df;fill-rule:nonzero;"/><rect x="895.27" y="386.577" width="3.861" height="110.471" style="fill:#eb3a0e;fill-rule:nonzero;"/><rect x="895.27" y="301.25" width="3.861" height="66.013" style="fill:#3372df;fill-rule:nonzero;"/><path d="M909.072,493.187l110.429,0l0,-6.157l-104.353,0l0,-13.875l108.352,0l0,3.861l-104.492,0l0,6.153l104.354,0l0,13.878l-118.151,0l0,-221.232l-6.081,0l0,13.967l-3.86,0l0,-17.828l13.802,0c0,73.744 0,147.489 0,221.233Z" style="fill:#eb3a0e;fill-rule:nonzero;"/><path d="M1023.5,275.815l-104.686,0l0,5.881l65.089,0l0,3.861l-68.95,0l0,-13.603l108.547,0c0,1.287 0,2.574 0,3.861Z" style="fill:#3372df;fill-rule:nonzero;"/><path d="M1023.5,295.32l-104.686,0l0,77.377l89.569,0l0,13.698l-11.649,0l0,-3.86l7.788,0l0,-5.978l-89.569,0l0,-85.098l104.686,0l0,-5.902l-22.75,0l0,-3.861l26.611,0c0,4.542 0,9.083 0,13.624Z" style="fill:#eb3a0e;fill-rule:nonzero;"/><path d="M988.003,386.395l-69.189,0l0,5.978l32.328,0l0,3.86l-36.189,0l0,-13.698l73.05,0c0,1.287 0,2.573 0,3.86Z" style="fill:#eb3a0e;fill-rule:nonzero;"/><rect x="961.169" y="392.373" width="47.2" height="3.861" style="fill:#3372df;fill-rule:nonzero;"/><rect x="914.953" y="405.902" width="3.861" height="58.476" style="fill:#3372df;fill-rule:nonzero;"/></g></svg>