<?xml version="1.0" encoding="UTF-8" standalone="no"?><!DOCTYPE svg PUBLIC "-//W3C//DTD SVG 1.1//EN" "http://www.w3.org/Graphics/SVG/1.1/DTD/svg11.dtd"><svg width="100%" height="100%" viewBox="0 0 1024 128" version="1.1" xmlns="http://www.w3.org/2000/svg" xmlns:xlink="http://www.w3.org/1999/xlink" xml:space="preserve" xmlns:serif="http://www.serif.com/" style="fill-rule:evenodd;clip-rule:evenodd;stroke-linejoin:round;stroke-miterlimit:1.41421;"><g><path d="M6.026,119.472l0,-113.551l7.082,0l0,108.451l57.992,0l0,7.082l-18.124,0l0,-1.982l16.142,0l0,-3.119l-57.992,0l0,-108.451l-3.118,0l0,113.552l-7.508,0l0,-21.218l1.982,0l0,19.236c1.181,0 2.363,0 3.544,0Z" style="fill:#fff;fill-rule:nonzero;"/><rect x="0.5" y="66.22" width="1.982" height="27.449" style="fill:#fff;fill-rule:nonzero;"/><rect x="0.5" y="5.921" width="1.982" height="54.193" style="fill:#fff;fill-rule:nonzero;"/><rect x="11.126" y="119.472" width="35.427" height="1.982" style="fill:#fff;fill-rule:nonzero;"/><rect x="16.24" y="109.27" width="54.86" height="1.982" style="fill:#fff;fill-rule:nonzero;"/><path d="M127.278,6.199l-9.682,26.498l-1.861,-0.68l8.811,-24.115l-3.318,0l-41.466,113.831l-1.862,-0.678l41.941,-115.134l7.242,0c0.065,0.093 0.13,0.185 0.195,0.278Z" style="fill:#fff;fill-rule:nonzero;"/><path d="M116.118,36.76l-11.816,32.466l-1.862,-0.678l11.816,-32.466c0.621,0.226 1.242,0.452 1.862,0.678Z" style="fill:#fff;fill-rule:nonzero;"/><path d="M140.511,26.944l-1.862,0.679l-6.896,-18.907l-41.033,112.738l-7.242,0l-0.194,-0.277l16.012,-43.992l1.862,0.678l-15.144,41.609l3.318,0l41.33,-113.551l2.181,0c2.556,7.007 5.112,14.015 7.668,21.023Z" style="fill:#fff;fill-rule:nonzero;"/><path d="M174.208,119.472l3.318,0l-14.107,-38.759l1.862,-0.678l14.975,41.142l-0.194,0.277l-7.242,0l-32.519,-89.347l1.862,-0.678c10.681,29.348 21.363,58.695 32.045,88.043Z" style="fill:#fff;fill-rule:nonzero;"/><path d="M149.705,21.817l-1.862,0.677l-5.311,-14.592l-3.197,0l24.849,68.274l-1.862,0.678l-25.716,-70.656l0.193,-0.277l7.12,0c1.929,5.298 3.858,10.597 5.786,15.896Z" style="fill:#fff;fill-rule:nonzero;"/><path d="M170.614,79.263l-1.862,0.678l-19.72,-54.181l1.862,-0.678c6.573,18.061 13.147,36.121 19.72,54.181Z" style="fill:#fff;fill-rule:nonzero;"/><path d="M185.639,121.055l-1.862,0.678l-13.387,-36.781l1.862,-0.678c4.462,12.26 8.924,24.521 13.387,36.781Z" style="fill:#fff;fill-rule:nonzero;"/><path d="M227.052,1.495c18.186,0.139 37.537,10.882 39.384,29.842c0.076,0.788 0.116,1.577 0.127,2.368l0.008,1.205l-1.982,0.013c-0.034,-5.228 -1.303,-10.399 -4.148,-14.859c-7.329,-11.489 -22.021,-16.558 -34.63,-16.591l0.006,-1.982c0.411,0.001 0.823,0.003 1.235,0.004Z" style="fill:#fff;fill-rule:nonzero;"/><path d="M211.799,6.227l-1.228,0.505c-0.308,0.129 -0.307,0.129 -0.614,0.26c-12.658,5.557 -22.845,17.887 -21.598,32.013c1.173,13.284 11.934,26.35 24.311,28.266l1.129,0.164l-0.287,1.961c-17.65,-2.577 -30.911,-22.452 -26.206,-40.229c2.903,-10.964 11.839,-19.784 22.504,-24.265l1.236,-0.508c0.251,0.611 0.502,1.222 0.753,1.833Z" style="fill:#fff;fill-rule:nonzero;"/><path d="M227.211,69.318c13.437,1.441 27.828,11.548 23.268,26.608c-4.492,14.837 -27.002,21.266 -40.72,10.645c-3.828,-2.963 -6.525,-7.337 -7.178,-12.225l-6.072,-0.112c0.183,1.087 0.243,1.279 0.395,1.88c0.249,0.98 0.561,1.943 0.931,2.883c3.352,8.521 11.3,14.78 20.117,17.227l1.234,0.331l-0.513,1.914l-1.242,-0.334c-11.412,-3.167 -21.346,-12.101 -23.014,-24.5c0,0 -0.159,-1.377 -0.159,-1.377l10.123,-0.025c0.552,7.198 5.588,13.364 12.24,15.896c9.729,3.703 21.882,1.624 28.502,-6.396c4.826,-5.846 5.56,-14.935 0.925,-21.08c-4.335,-5.748 -11.814,-8.589 -19.04,-9.364l-1.287,-0.128l0.196,-1.972c0.431,0.043 0.863,0.086 1.294,0.129Z" style="fill:#fff;fill-rule:nonzero;"/><path d="M227.003,7.883c4.098,0.031 8.182,0.709 12.06,2.003c1.321,0.44 2.618,0.951 3.884,1.533c1.018,0.468 2.015,0.981 2.986,1.54c0.744,0.428 1.472,0.883 2.182,1.364c6.441,4.367 11.597,11.317 11.649,19.482l-0.003,1.166l-11.48,-0.116c-0.032,-2.665 -0.493,-5.316 -1.854,-7.664c-7.986,-13.77 -32.745,-12.803 -40.2,2.055c-2.785,5.551 -2.261,12.552 1.36,17.648c4.555,6.41 12.927,8.941 20.775,9.163c19.407,0.649 39.396,14.603 38.953,35.025c-0.473,21.726 -24.916,38.671 -49.878,33.924c-5.725,-1.089 -11.345,-3.173 -15.89,-6.838l-1.054,-0.875l1.268,-1.523c17.933,14.932 50.65,8.793 60.75,-12.764c5.109,-10.903 2.608,-24.752 -5.916,-33.397c-7.979,-8.093 -19.948,-11.12 -31.191,-11.628c-10.837,-0.546 -21.682,-7.88 -22.895,-18.935c-1.639,-14.94 16.736,-28.036 34.146,-21.822c0.585,0.209 1.163,0.438 1.732,0.688c5.977,2.62 11.293,7.987 11.824,14.949c0,0 7.55,0.108 7.55,0.108c-0.47,-9.34 -8.715,-16.831 -16.623,-20.183c-14.904,-6.317 -34.932,-2.113 -42.814,13.089c-4.112,7.93 -3.343,18.084 2.039,25.271c6.343,8.47 17.652,11.827 28.22,12.13c12.297,0.411 25.151,6.608 29.39,18.21c3.289,9 0.895,19.662 -5.605,26.791c-6.366,6.981 -15.85,10.708 -25.353,10.788l-1.198,0.003l-0.006,-1.982c15.502,-0.041 32.774,-9.894 31.675,-28.229c-0.461,-7.685 -5.033,-14.858 -11.654,-18.865c-6.057,-3.665 -13.403,-4.581 -20.302,-4.776c-12.49,-0.42 -25.192,-7.117 -29.957,-18.451c-3.791,-9.016 -1.749,-19.935 4.916,-27.52c6.405,-7.29 16.178,-11.225 25.889,-11.361c0.208,-0.001 0.416,-0.002 0.625,-0.001Z" style="fill:#fff;fill-rule:nonzero;"/><path d="M188.43,93.492c0.12,6.347 3.149,12.534 7.612,17.185l0.906,0.926l-1.415,1.387c-5.171,-5.274 -8.945,-12.066 -9.084,-19.468l-0.013,-1.152l1.981,-0.022c0.005,0.381 0.009,0.763 0.013,1.144Z" style="fill:#fff;fill-rule:nonzero;"/><rect x="277.291" y="64.753" width="1.982" height="56.701" style="fill:#fff;fill-rule:nonzero;"/><rect x="277.291" y="20.958" width="1.982" height="33.882" style="fill:#fff;fill-rule:nonzero;"/><path d="M284.375,119.472l56.68,0l0,-3.16l-53.561,0l0,-7.122l55.613,0l0,1.982l-53.632,0l0,3.158l53.561,0l0,7.124l-60.642,0l0,-113.552l-3.121,0l0,7.169l-1.982,0l0,-9.15l7.084,0c0,37.85 0,75.701 0,113.551Z" style="fill:#fff;fill-rule:nonzero;"/><path d="M343.107,7.902l-53.731,0l0,3.019l33.408,0l0,1.982l-35.39,0l0,-6.982l55.713,0c0,0.66 0,1.321 0,1.981Z" style="fill:#fff;fill-rule:nonzero;"/><path d="M343.107,17.914l-53.731,0l0,39.714l45.972,0l0,7.032l-5.979,0l0,-1.982l3.998,0l0,-3.068l-45.973,0l0,-43.678l53.732,0l0,-3.029l-11.677,0l0,-1.982l13.658,0c0,2.331 0,4.662 0,6.993Z" style="fill:#fff;fill-rule:nonzero;"/><path d="M324.888,64.66l-35.512,0l0,3.068l16.592,0l0,1.981l-18.574,0l0,-7.031l37.494,0c0,0.661 0,1.321 0,1.982Z" style="fill:#fff;fill-rule:nonzero;"/><rect x="311.115" y="67.728" width="24.226" height="1.982" style="fill:#fff;fill-rule:nonzero;"/><rect x="287.394" y="74.672" width="1.982" height="30.014" style="fill:#fff;fill-rule:nonzero;"/><rect x="353.873" y="27.041" width="1.982" height="61.706" style="fill:#fff;fill-rule:nonzero;"/><rect x="353.873" y="96.889" width="1.982" height="24.565" style="fill:#fff;fill-rule:nonzero;"/><path d="M389.911,16.161c8.564,0.132 16.651,6.078 19.251,14.271c3.824,12.05 -5.534,26.533 -19.377,26.66c0,0 -23.717,0 -23.717,0l0,64.362l-7.14,0l0,-113.552l-3.074,0l0,11.294l-1.981,0l0,-13.275l7.037,0l0,113.551l3.176,0l0,-64.361c8.6,0 17.201,0.077 25.801,-0.002c8.37,-0.129 16.085,-6.345 17.848,-14.636c2.258,-10.62 -6.358,-22.294 -18.079,-22.332l-23.588,0l0,24.399l-1.982,0l0,-26.381c8.609,0 17.217,-0.077 25.825,0.002Z" style="fill:#fff;fill-rule:nonzero;"/><path d="M394.17,5.926c9.458,0.414 17.71,7.713 22.406,15.252c1.937,3.108 3.41,6.573 3.546,10.24l0.03,1.138l-1.981,0.051c-0.326,-12.462 -12.489,-24.193 -24.08,-24.701c0,0 -28.029,-0.004 -28.029,-0.004l0,3.069l22.861,0c1.694,0.007 1.975,0.042 2.904,0.122c11.337,0.971 21.312,10.03 23.142,21.331c1.716,10.601 -3.598,22.274 -13.239,27.08c-3.949,1.97 -8.406,2.763 -12.807,2.783l-16.329,0l33.857,40.349l-1.518,1.274l-35.979,-42.879l0.338,-0.725l19.627,0c1.602,-0.008 1.865,-0.04 2.74,-0.114c10.081,-0.851 19.005,-8.459 21.134,-18.467c2.136,-10.048 -2.631,-21.508 -11.949,-26.176c-3.675,-1.842 -7.836,-2.578 -11.925,-2.597l-24.839,0l0,-7.031c10.03,0 20.067,-0.356 30.09,0.005Z" style="fill:#fff;fill-rule:nonzero;"/><path d="M421.512,120.585l-1.518,1.274l-10.921,-13.016l1.518,-1.273c3.64,4.338 7.281,8.676 10.921,13.015Z" style="fill:#fff;fill-rule:nonzero;"/><path d="M414.733,120.728l-0.338,0.726l-8.292,0l-36.292,-43.251l1.518,-1.274l35.698,42.543l4.066,0l-34.772,-41.44l1.518,-1.273c12.298,14.656 24.596,29.313 36.894,43.969Z" style="fill:#fff;fill-rule:nonzero;"/><rect x="498.429" y="27.041" width="1.982" height="61.706" style="fill:#fff;fill-rule:nonzero;"/><rect x="498.429" y="96.889" width="1.982" height="24.565" style="fill:#fff;fill-rule:nonzero;"/><path d="M534.468,16.161c9.764,0.15 18.807,7.911 20.053,17.938c1.406,11.31 -8.067,22.882 -20.18,22.993c0,0 -23.717,0 -23.717,0l0,64.362l-7.139,0l0,-113.552l-3.074,0l0,11.294l-1.982,0l0,-13.275l7.037,0l0,113.551l3.176,0l0,-64.361c8.601,0 17.201,0.077 25.801,-0.002c8.37,-0.129 16.085,-6.345 17.848,-14.636c2.261,-10.629 -6.358,-22.294 -18.079,-22.332l-23.588,0l0,24.399l-1.982,0l0,-26.381c8.609,0 17.218,-0.077 25.826,0.002Z" style="fill:#fff;fill-rule:nonzero;"/><path d="M538.726,5.926c8.627,0.377 16.27,6.571 21.108,13.315c2.561,3.57 4.628,7.631 4.839,12.025l0.036,1.289l-1.981,0.053c-0.011,-0.419 -0.019,-0.839 -0.035,-1.258c-0.337,-7.036 -5.586,-13.639 -10.89,-17.952c-3.79,-3.081 -8.486,-5.323 -13.243,-5.496l-27.942,0l0,3.069l22.862,0c6.99,0.032 14.04,2.278 18.886,7.245c9.515,9.753 9.713,27.152 -0.23,37.091c-4.806,4.804 -11.811,6.95 -18.656,6.98l-19.317,0l0,-1.981l19.312,0c6.441,-0.029 12.966,-1.996 17.473,-6.616c12.195,-12.502 7.211,-39.402 -15.64,-40.687c-0.611,-0.034 -1.221,-0.048 -1.833,-0.051l-24.838,0l0,-7.031c10.03,0 20.066,-0.358 30.089,0.005Z" style="fill:#fff;fill-rule:nonzero;"/><rect x="571.118" y="27.041" width="1.982" height="61.706" style="fill:#fff;fill-rule:nonzero;"/><rect x="571.118" y="96.889" width="1.982" height="24.565" style="fill:#fff;fill-rule:nonzero;"/><path d="M607.157,16.161c8.553,0.132 16.636,6.033 19.25,14.271c3.824,12.05 -5.534,26.533 -19.377,26.66c0,0 -23.717,0 -23.717,0l0,64.362l-7.14,0l0,-113.552l-3.074,0l0,11.294l-1.981,0l0,-13.275l7.037,0l0,113.551l3.176,0l0,-64.361c8.601,0 17.201,0.077 25.801,-0.002c8.369,-0.129 16.085,-6.345 17.848,-14.636c2.257,-10.613 -6.358,-22.294 -18.079,-22.332l-23.588,0l0,24.399l-1.982,0l0,-26.381c8.609,0 17.218,-0.077 25.826,0.002Z" style="fill:#fff;fill-rule:nonzero;"/><path d="M611.415,5.926c9.448,0.414 17.71,7.714 22.407,15.252c1.936,3.108 3.41,6.573 3.546,10.24l0.03,1.137l-1.981,0.053c-0.328,-12.411 -12.369,-24.189 -24.081,-24.702c0,0 -28.029,-0.004 -28.029,-0.004l0,3.069l22.862,0c1.693,0.007 1.975,0.042 2.903,0.122c10.696,0.916 20.247,8.886 22.762,19.429c2.637,11.057 -2.517,23.826 -12.859,28.982c-3.949,1.97 -8.406,2.763 -12.806,2.783l-16.329,0l33.856,40.349l-1.518,1.274l-35.979,-42.879l0.338,-0.725l19.627,0c1.602,-0.008 1.865,-0.04 2.74,-0.114c9.876,-0.834 18.673,-8.12 21.002,-17.884c2.429,-10.183 -2.287,-21.984 -11.817,-26.759c-3.675,-1.842 -7.836,-2.578 -11.925,-2.597l-24.838,0l0,-7.031c10.029,0 20.066,-0.356 30.089,0.005Z" style="fill:#fff;fill-rule:nonzero;"/><path d="M638.757,120.585l-1.518,1.274l-10.921,-13.016l1.518,-1.273c3.64,4.338 7.281,8.676 10.921,13.015Z" style="fill:#fff;fill-rule:nonzero;"/><path d="M631.979,120.728l-0.339,0.726l-8.292,0l-36.291,-43.251l1.518,-1.274l35.697,42.543l4.066,0l-34.772,-41.44l1.518,-1.273c12.298,14.656 24.596,29.313 36.895,43.969Z" style="fill:#fff;fill-rule:nonzero;"/><path d="M700.935,5.922c6.328,0.047 12.617,1.211 18.611,3.157l-0.612,1.884c-12.233,-3.971 -25.614,-3.834 -37.809,0.442l-0.656,-1.87c6.59,-2.311 13.459,-3.631 20.466,-3.613Z" style="fill:#fff;fill-rule:nonzero;"/><path d="M740.683,22.066c6.831,6.597 11.873,14.889 14.977,23.945l-1.875,0.643c-2.992,-8.73 -7.846,-16.757 -14.476,-23.161l-0.867,-0.831l1.372,-1.43c0.29,0.278 0.579,0.556 0.869,0.834Z" style="fill:#fff;fill-rule:nonzero;"/><path d="M758.411,62.7c-0.05,15.543 -5.997,30.936 -17.14,42.035l-0.955,0.939l-1.389,-1.412c10.723,-10.549 17.352,-24.94 17.498,-40.209l0.005,-1.36c0.66,0.002 1.321,0.005 1.981,0.007Z" style="fill:#fff;fill-rule:nonzero;"/><path d="M725.861,115.677c-12.742,5.878 -27.196,7.418 -40.79,3.65l-1.43,-0.409l0.547,-1.905c13.061,3.747 27.23,3.044 39.605,-2.564l1.238,-0.571c0.277,0.6 0.553,1.199 0.83,1.799Z" style="fill:#fff;fill-rule:nonzero;"/><path d="M645.995,74.944c3.021,14.48 11.99,27.511 24.353,35.582l1.129,0.728l-1.073,1.666l-1.134,-0.731c-12.772,-8.339 -22.081,-21.82 -25.216,-36.846l-0.269,-1.335l1.942,-0.392c0.089,0.443 0.179,0.886 0.268,1.328Z" style="fill:#fff;fill-rule:nonzero;"/><path d="M663.398,22.122c-10.369,9.683 -17.252,22.931 -18.382,37.316l-0.096,1.333l-1.976,-0.143l0.097,-1.339c1.116,-14.227 7.636,-27.887 18.039,-37.713l0.966,-0.902c0.451,0.483 0.902,0.965 1.352,1.448Z" style="fill:#fff;fill-rule:nonzero;"/><path d="M700.974,12.333c23.469,0.222 45.451,18.175 50.042,41.324c3.31,16.691 -2.315,34.867 -14.506,46.77c-14.158,13.823 -36.566,18.465 -55.273,10.817c-16.521,-6.754 -28.971,-22.67 -31.452,-40.38c-3.038,-21.684 9.465,-44.675 29.446,-53.863c6.798,-3.125 14.372,-4.692 21.743,-4.668Zm-0.652,1.982c-22.659,0.213 -43.866,17.602 -48.17,40.03c-3.078,16.04 2.431,33.498 14.218,44.871c13.673,13.191 35.255,17.548 53.204,10.079c15.841,-6.591 27.725,-21.964 30.004,-39.014c2.79,-20.868 -9.354,-42.884 -28.626,-51.604c-6.456,-2.921 -13.536,-4.386 -20.63,-4.362Z" style="fill:#fff;fill-rule:nonzero;"/><path d="M700.932,18.708c14.31,0.137 28.337,7.486 36.542,19.168c7.597,10.817 10.056,25.004 6.509,37.875l-0.319,1.134l-1.907,-0.535c2.136,-7.617 2.487,-15.6 0.594,-23.146c-4.452,-17.747 -21.055,-31.641 -39.772,-32.472c-0.553,-0.025 -1.106,-0.037 -1.659,-0.042l-1.272,-0.004l0.006,-1.982c0.426,0.001 0.852,0.003 1.278,0.004Z" style="fill:#fff;fill-rule:nonzero;"/><path d="M658.575,72.626c2.923,13.632 12.782,25.461 25.591,30.785c12.893,5.359 28.38,3.909 40.06,-3.773c3.286,-2.162 6.274,-4.774 8.857,-7.742c1.22,-1.401 2.343,-2.885 3.38,-4.43l0.729,-1.104l1.654,1.091l-0.733,1.111c-6.395,9.529 -16.369,16.454 -27.445,18.98c-13.954,3.181 -29.366,-0.792 -40.044,-10.369c-7.035,-6.31 -11.995,-14.846 -13.988,-24.139l-0.252,-1.207l1.94,-0.405c0.084,0.4 0.167,0.801 0.251,1.202Z" style="fill:#fff;fill-rule:nonzero;"/><path d="M683.371,24.288c-14.89,6.999 -25.341,22.082 -25.716,38.391c-0.016,0.667 -0.012,1.334 -0.014,2.001l-1.981,-0.004c0.018,-8.757 2.226,-17.446 6.814,-24.786c4.555,-7.287 11.229,-13.204 18.979,-16.89l1.075,-0.505c0.281,0.598 0.562,1.196 0.843,1.793Z" style="fill:#fff;fill-rule:nonzero;"/><path d="M777.073,119.472l0,-113.551l65.427,0l0,1.981l-63.446,0l0,113.552l-7.508,0l0,-21.218l1.982,0l0,19.236c1.181,0 2.363,0 3.545,0Z" style="fill:#fff;fill-rule:nonzero;"/><rect x="771.546" y="66.22" width="1.982" height="27.449" style="fill:#fff;fill-rule:nonzero;"/><rect x="771.546" y="5.921" width="1.982" height="54.193" style="fill:#fff;fill-rule:nonzero;"/><path d="M842.5,17.949l-58.421,0l0,37.405l49.545,0l0,12.225l-51.527,0l0,-7.164l46.427,0l0,1.982l-44.445,0l0,3.2l47.564,0l0,-8.262l-49.546,0l0,-41.368l58.422,0l0,-3.041l-58.422,0l0,-1.982l60.403,0c0,2.335 0,4.67 0,7.005Z" style="fill:#fff;fill-rule:nonzero;"/><rect x="782.097" y="73.809" width="1.982" height="47.645" style="fill:#fff;fill-rule:nonzero;"/><path d="M858.848,119.472l0,-113.551l7.082,0l0,115.533l-1.981,0l0,-113.552l-3.119,0l0,113.552l-7.508,0l0,-21.218l1.982,0l0,19.236c1.181,0 2.363,0 3.544,0Z" style="fill:#fff;fill-rule:nonzero;"/><rect x="853.322" y="66.22" width="1.982" height="27.449" style="fill:#fff;fill-rule:nonzero;"/><rect x="853.322" y="5.921" width="1.982" height="54.193" style="fill:#fff;fill-rule:nonzero;"/><path d="M883.514,119.472l0,-113.551l7.081,0l0,108.451l57.993,0l0,7.082l-18.124,0l0,-1.982l16.142,0l0,-3.119l-57.992,0l0,-108.451l-3.119,0l0,113.552l-7.508,0l0,-21.218l1.982,0l0,19.236c1.182,0 2.363,0 3.545,0Z" style="fill:#fff;fill-rule:nonzero;"/><rect x="877.987" y="66.22" width="1.982" height="27.449" style="fill:#fff;fill-rule:nonzero;"/><rect x="877.987" y="5.921" width="1.982" height="54.193" style="fill:#fff;fill-rule:nonzero;"/><rect x="888.614" y="119.472" width="35.427" height="1.982" style="fill:#fff;fill-rule:nonzero;"/><rect x="893.728" y="109.27" width="54.86" height="1.982" style="fill:#fff;fill-rule:nonzero;"/><rect x="957.684" y="64.753" width="1.982" height="56.701" style="fill:#fff;fill-rule:nonzero;"/><rect x="957.684" y="20.958" width="1.982" height="33.882" style="fill:#fff;fill-rule:nonzero;"/><path d="M964.768,119.472l56.679,0l0,-3.16l-53.561,0l0,-7.122l55.614,0l0,1.982l-53.632,0l0,3.158l53.561,0l0,7.124l-60.643,0l0,-113.552l-3.121,0l0,7.169l-1.981,0l0,-9.15l7.084,0c0,37.85 0,75.701 0,113.551Z" style="fill:#fff;fill-rule:nonzero;"/><path d="M1023.5,7.902l-53.732,0l0,3.019l33.408,0l0,1.982l-35.389,0l0,-6.982l55.713,0c0,0.66 0,1.321 0,1.981Z" style="fill:#fff;fill-rule:nonzero;"/><path d="M1023.5,17.914l-53.732,0l0,39.714l45.973,0l0,7.032l-5.979,0l0,-1.982l3.997,0l0,-3.068l-45.972,0l0,-43.678l53.731,0l0,-3.029l-11.676,0l0,-1.982l13.658,0c0,2.331 0,4.662 0,6.993Z" style="fill:#fff;fill-rule:nonzero;"/><path d="M1005.28,64.66l-35.512,0l0,3.068l16.593,0l0,1.981l-18.574,0l0,-7.031l37.493,0c0,0.661 0,1.321 0,1.982Z" style="fill:#fff;fill-rule:nonzero;"/><rect x="991.507" y="67.728" width="24.226" height="1.982" style="fill:#fff;fill-rule:nonzero;"/><rect x="967.787" y="74.672" width="1.982" height="30.014" style="fill:#fff;fill-rule:nonzero;"/></g></svg>